<?xml version="1.0" standalone="no"?>
<!DOCTYPE svg PUBLIC "-//W3C//DTD SVG 1.1//EN" "http://www.w3.org/Graphics/SVG/1.1/DTD/svg11.dtd">
<svg width="100%" height="100%" viewBox="0 0 600 600" version="1.1" xmlns="http://www.w3.org/2000/svg" xmlns:xlink="http://www.w3.org/1999/xlink" xml:space="preserve" style="fill-rule:evenodd;clip-rule:evenodd;stroke-linejoin:round;stroke-miterlimit:1.41421;">
    <g transform="matrix(1,0,0,1,-4,0)">
        <rect x="160.304" y="94.707" width="287.509" height="287.047" style="fill:rgb(255,0,0);"/>
    </g>
    <g transform="matrix(0.0503973,0,0,0.786622,435.735,48.7494)">
        <rect x="160.304" y="94.707" width="287.509" height="287.047" style="fill:rgb(192,5,5);"/>
    </g>
    <g transform="matrix(0.0503973,0,0,0.786622,133.736,48.7494)">
        <rect x="160.304" y="94.707" width="287.509" height="287.047" style="fill:rgb(192,5,5);"/>
    </g>
    <g transform="matrix(-1.20826,3.88606e-16,-3.21625e-16,-1,488.915,909.93)">
        <path d="M275.281,409.199L275.281,528.176L156.304,528.176L275.281,409.199Z" style="fill:rgb(255,0,0);"/>
    </g>
    <g transform="matrix(-1.20826,3.88606e-16,-3.21625e-16,-1,632.67,909.93)">
        <path d="M156.304,409.199L275.281,528.176L156.304,528.176L156.304,409.199Z" style="fill:rgb(255,0,0);"/>
    </g>
    <g>
        <rect x="187.101" y="123.248" width="225.798" height="225.798" style="fill:rgb(235,235,235);"/>
        <path d="M417.899,354.045L182.101,354.045L182.101,118.248L417.899,118.248L417.899,354.045ZM192.101,128.248L192.101,344.045L407.899,344.045L407.899,128.248L192.101,128.248Z" style="fill:rgb(192,5,5);"/>
    </g>
    <g transform="matrix(0.95738,0,0,0.95738,12.7859,10.0645)">
        <path d="M433.113,369.26L166.887,369.26L166.887,103.034L433.113,103.034L433.113,369.26ZM177.332,113.479L177.332,358.815L422.668,358.815L422.668,113.479L177.332,113.479Z" style="fill:rgb(235,235,235);"/>
    </g>
    <g transform="matrix(20.4801,0,0,20.4801,-4034.72,-4690.94)">
        <path d="M215.523,244.213C214.929,244.428 214.443,244.572 214.064,244.646C213.396,244.775 212.763,244.84 212.166,244.84C211.263,244.84 210.46,244.663 209.757,244.31C209.054,243.956 208.511,243.461 208.128,242.824C207.746,242.188 207.554,241.436 207.554,240.568C207.554,239.807 207.692,239.159 207.967,238.626C208.243,238.093 208.586,237.654 208.999,237.311C209.411,236.967 209.822,236.713 210.232,236.549C210.861,236.299 211.638,236.174 212.564,236.174C212.998,236.178 213.454,236.228 213.932,236.323C214.411,236.419 214.951,236.551 215.552,236.719C215.494,236.918 215.449,237.113 215.417,237.305C215.386,237.496 215.345,237.889 215.294,238.482L214.937,238.482L214.908,237.814C214.904,237.713 214.9,237.631 214.896,237.568C214.892,237.506 214.867,237.426 214.82,237.328C214.714,237.188 214.546,237.061 214.316,236.947C213.917,236.795 213.588,236.693 213.329,236.643C213.069,236.592 212.759,236.566 212.4,236.566C211.658,236.566 211.015,236.725 210.472,237.041C209.929,237.357 209.518,237.811 209.239,238.4C208.959,238.99 208.82,239.635 208.82,240.334C208.82,241.104 208.983,241.796 209.309,242.411C209.635,243.026 210.073,243.497 210.622,243.823C211.17,244.149 211.81,244.313 212.541,244.313C212.884,244.313 213.217,244.279 213.54,244.213C213.862,244.146 214.134,244.055 214.357,243.938C214.392,243.781 214.41,243.531 214.41,243.188L214.41,242.537C214.41,242.193 214.392,241.992 214.357,241.934C214.322,241.875 214.227,241.831 214.073,241.802C213.918,241.772 213.564,241.75 213.009,241.734L213.009,241.377L214.837,241.418C215.193,241.418 215.556,241.404 215.927,241.377L215.962,241.658L215.523,241.916C215.476,242.334 215.453,242.719 215.453,243.07C215.453,243.422 215.476,243.803 215.523,244.213Z" style="fill:rgb(192,5,5);fill-rule:nonzero;stroke-width:0.05px;stroke:rgb(192,5,5);"/>
    </g>
</svg>
