<?xml version="1.0" encoding="UTF-8" standalone="no"?>
<!DOCTYPE svg PUBLIC "-//W3C//DTD SVG 1.1//EN" "http://www.w3.org/Graphics/SVG/1.1/DTD/svg11.dtd">
<svg width="100%" height="100%" viewBox="0 0 267 267" version="1.1" xmlns="http://www.w3.org/2000/svg" xmlns:xlink="http://www.w3.org/1999/xlink" xml:space="preserve" xmlns:serif="http://www.serif.com/" style="fill-rule:evenodd;clip-rule:evenodd;">
    <circle cx="133.5" cy="133.5" r="133.5" style="fill:rgb(131,131,131);"/>
    <g id="Parrot" transform="matrix(2.49183,0,0,2.49183,-20.9937,-19.7478)">
        <path d="M34.405,22C31.208,22 29.642,23.455 28.892,24.675C26.965,27.807 28.704,32.016 29.072,32.827L29.082,32.849L48.931,75.582L49.037,75.785C49.175,76.026 52.501,81.693 58.269,81.693C58.327,81.693 58.386,81.693 58.445,81.692C63.992,82.016 66.705,82.156 68.166,82.232C69.854,82.319 69.854,82.319 70.802,82.427L70.985,82.448L71.127,82.464C73.058,82.68 75.462,82.949 79.032,87.514L79.057,87.544C80.259,89.035 81.359,90.417 82.329,91.636C87.753,98.45 89.782,101 92.398,101C93.197,101 93.955,100.727 94.589,100.208C95.768,99.248 96.812,97.307 95.093,93.522C94.508,92.233 93.774,91.088 93.522,90.708C92.03,87.928 64.629,36.868 61.206,30.583C56.967,22.799 46.145,22.081 34.48,22L34.405,22ZM34.405,24.605L34.464,24.605C46.067,24.686 55.51,25.435 59.009,31.861C62.547,38.357 91.379,92.085 91.379,92.085C91.379,92.085 94.649,96.842 93.028,98.164C92.838,98.319 92.63,98.395 92.398,98.395C90.652,98.395 87.575,94.036 80.993,85.876C76.677,80.358 73.43,80.104 71.259,79.858C69.088,79.613 71.149,79.825 58.484,79.085C58.411,79.087 58.34,79.088 58.269,79.088C53.869,79.088 51.204,74.454 51.204,74.454L31.354,31.722C31.354,31.722 28.127,24.605 34.405,24.605ZM45.472,29.718C44.43,29.718 43.393,29.988 42.472,30.499C39.387,32.211 38.222,36.2 39.877,39.391C40.985,41.529 43.132,42.857 45.478,42.857C46.52,42.857 47.557,42.587 48.478,42.076C51.564,40.364 52.728,36.375 51.073,33.183C49.965,31.046 47.819,29.718 45.472,29.718ZM45.472,32.323C46.838,32.323 48.161,33.081 48.852,34.414C49.852,36.343 49.151,38.746 47.286,39.781C46.71,40.1 46.09,40.252 45.478,40.252C44.112,40.252 42.789,39.493 42.098,38.161C41.098,36.232 41.799,33.829 43.664,32.794C44.241,32.474 44.86,32.323 45.472,32.323ZM65.499,89.851C64.98,90.249 64.237,90.149 63.84,89.628C63.444,89.107 63.543,88.363 64.063,87.965C64.37,87.731 64.883,87.407 65.565,87.089C67.925,85.987 70.465,85.82 72.86,87.235C72.944,87.285 73.027,87.336 73.11,87.39C75.557,88.964 77.154,92.22 76.431,96.157C76.312,96.801 75.695,97.227 75.052,97.109C74.41,96.99 73.985,96.371 74.103,95.727C74.644,92.785 73.505,90.463 71.832,89.387C71.774,89.349 71.716,89.314 71.658,89.279C70.037,88.321 68.284,88.437 66.564,89.239C66.051,89.479 65.679,89.714 65.499,89.851ZM44.869,52.769C44.563,52.19 44.783,51.472 45.36,51.165C45.937,50.858 46.654,51.078 46.96,51.657C47.057,51.839 47.252,52.192 47.544,52.692C48.034,53.532 48.613,54.471 49.276,55.482C51.172,58.373 53.36,61.265 55.808,63.96C59.956,68.527 64.412,72.043 69.091,74.103C72.116,75.434 73.025,75.226 73.157,74.1C73.331,72.631 72.515,69.92 70.92,66.439C70.461,65.437 69.945,64.387 69.381,63.297C68.591,61.773 67.755,60.263 66.855,58.704C66.513,58.112 65.553,56.483 65.479,56.341C65.173,55.761 65.394,55.044 65.972,54.738C66.55,54.432 67.266,54.653 67.571,55.232C67.616,55.316 68.529,56.867 68.904,57.515C69.821,59.103 70.673,60.643 71.481,62.203C72.063,63.326 72.595,64.41 73.071,65.449C74.845,69.32 75.75,72.328 75.508,74.378C75.137,77.524 72.403,78.152 68.139,76.275C63.119,74.065 58.411,70.35 54.057,65.557C51.52,62.763 49.258,59.774 47.298,56.785C46.612,55.738 46.011,54.765 45.501,53.89C45.321,53.582 45.166,53.308 45.034,53.071C44.954,52.926 44.899,52.825 44.869,52.769Z" style="fill:white;stroke:white;stroke-width:2.01px;"/>
    </g>
</svg>
